<?xml version="1.0" standalone="no"?>
<!DOCTYPE svg PUBLIC "-//W3C//DTD SVG 20010904//EN"
 "http://www.w3.org/TR/2001/REC-SVG-20010904/DTD/svg10.dtd">
<svg version="1.0" xmlns="http://www.w3.org/2000/svg"
 width="44.000000pt" height="38.000000pt" viewBox="0 0 44.000000 38.000000"
 preserveAspectRatio="xMidYMid meet">

<g transform="translate(0.000000,38.000000) scale(0.100000,-0.100000)"
fill="#000000" stroke="none">
<path d="M115 366 c-47 -20 -102 -88 -110 -135 -11 -66 3 -119 44 -164 61 -68
136 -85 217 -48 49 22 59 35 40 51 -12 9 -20 8 -41 -6 -39 -25 -116 -24 -151
2 -50 37 -69 72 -69 124 0 106 114 180 205 133 40 -21 80 -75 80 -109 0 -19
-5 -24 -27 -24 l-28 0 43 -42 42 -43 42 43 43 42 -31 0 c-29 0 -33 4 -43 44
-28 110 -155 176 -256 132z"/>
<path d="M180 232 c0 -44 -3 -49 -35 -66 -19 -11 -35 -25 -35 -33 0 -19 15
-16 60 12 39 24 40 27 40 80 0 42 -3 55 -15 55 -11 0 -15 -12 -15 -48z"/>
</g>
</svg>
